Coordinates
version=1
nRows=27
nColumns=12
inDegrees=yes

Units are S.I. units (second, meters, Newtons, ...)
Angles are in degrees

endheader
time	SC_y	SC_z	SC_x	AC_y	AC_z	AC_x	GH_y	GH_z	GH_yy	EL_x	PS_y
       0.0              -16.98          28.36           16.3          51.35         -6.824          4.911         -126.2          65.15          80.94          27.32          70.38
   0.01311              -16.98          28.35           16.3          51.35         -6.823          4.911         -126.1          65.15          80.92          27.33          70.38
   0.02622              -16.99          28.35           16.3          51.35         -6.822          4.911         -126.1          65.16           80.9          27.34          70.37
   0.03934              -16.99          28.35          16.29          51.35         -6.821          4.911         -126.1          65.16          80.88          27.36          70.37
   0.05245               -17.0          28.35          16.29          51.35          -6.82          4.911         -126.1          65.16          80.85          27.37          70.37
   0.06556              -17.01          28.35          16.29          51.35         -6.819          4.911         -126.1          65.17          80.83          27.39          70.37
   0.07867              -17.02          28.35          16.29          51.35         -6.818          4.912         -126.0          65.17           80.8          27.41          70.37
   0.09178              -17.02          28.35          16.28          51.35         -6.816          4.912         -126.0          65.18          80.77          27.43          70.36
    0.1049              -17.03          28.34          16.28          51.35         -6.815          4.912         -126.0          65.18          80.74          27.45          70.36
     0.118              -17.04          28.34          16.28          51.35         -6.813          4.912         -125.9          65.19          80.71          27.47          70.36
    0.1311              -17.05          28.34          16.27          51.35         -6.812          4.912         -125.9           65.2          80.67          27.49          70.36
    0.1442              -17.06          28.34          16.27          51.35          -6.81          4.912         -125.9           65.2          80.64          27.52          70.35
    0.1573              -17.08          28.33          16.27          51.35         -6.808          4.913         -125.8          65.21          80.59          27.54          70.35
    0.1705              -17.09          28.33          16.26          51.35         -6.806          4.913         -125.8          65.22          80.55          27.57          70.35
    0.1836               -17.1          28.33          16.26          51.36         -6.803          4.913         -125.8          65.23           80.5          27.61          70.34
    0.1967              -17.12          28.33          16.25          51.36         -6.801          4.913         -125.7          65.23          80.45          27.64          70.34
    0.2098              -17.13          28.32          16.25          51.36         -6.798          4.914         -125.7          65.24          80.39          27.68          70.34
    0.2229              -17.15          28.32          16.24          51.36         -6.795          4.914         -125.6          65.26          80.33          27.72          70.33
     0.236              -17.17          28.31          16.23          51.36         -6.792          4.914         -125.6          65.27          80.26          27.76          70.33
    0.2491              -17.19          28.31          16.22          51.36         -6.789          4.915         -125.5          65.28          80.19          27.81          70.32
    0.2622              -17.21          28.31          16.22          51.37         -6.785          4.915         -125.4          65.29          80.11          27.86          70.31
    0.2754              -17.24           28.3          16.21          51.37         -6.781          4.915         -125.3          65.31          80.02          27.92          70.31
    0.2885              -17.27          28.29           16.2          51.37         -6.776          4.916         -125.3          65.33          79.92          27.99           70.3
    0.3016               -17.3          28.29          16.19          51.37         -6.771          4.916         -125.2          65.35          79.81          28.06          70.29
    0.3147              -17.33          28.28          16.17          51.38         -6.765          4.917         -125.1          65.37          79.69          28.14          70.28
    0.3278              -17.37          28.27          16.16          51.38         -6.759          4.918         -124.9          65.39          79.56          28.23          70.27
    0.3409              -17.42          28.26          16.15          51.38         -6.752          4.918         -124.8          65.42          79.41          28.33          70.26
